# Blender v2.79 (sub 0) OBJ File: 'infantry1.blend'
# www.blender.org
mtllib infantry1.mtl
o Cube
v 1.000000 4.497541 -1.000000
v 1.000000 2.497541 -1.000000
v 1.000000 4.497541 1.000000
v 1.000000 2.497541 1.000000
v -1.000000 4.497541 -1.000000
v -1.000000 2.497541 -1.000000
v -1.000000 4.497541 1.000000
v -1.000000 2.497541 1.000000
v 0.000000 4.497541 1.000000
v 1.000000 3.497541 1.000000
v 1.000000 4.497541 0.000000
v 0.000000 4.497541 -1.000000
v 0.000000 2.497541 -1.000000
v -1.000000 5.497541 -1.000000
v -1.000000 4.497541 0.000000
v -1.000000 2.497541 0.000000
v -1.000000 3.497541 1.000000
v 0.000000 2.497541 1.000000
v 1.000000 2.497541 0.000000
v 1.000000 3.497541 -1.000000
v 0.000000 3.497541 1.000000
v 1.000000 3.497541 0.000000
v 0.000000 4.497541 0.000000
v -1.000000 5.497541 0.000000
v 0.000000 2.497541 0.000000
v -2.000000 3.497541 -1.000000
v 0.000000 4.497541 -2.000000
v 1.000000 4.497541 -2.000000
v 0.000000 2.497541 -2.000000
v -1.000000 2.497541 -2.000000
v -1.000000 3.497541 -2.000000
v 1.000000 3.497541 -2.000000
v 1.000000 2.497541 -2.000000
v -1.000000 4.497541 -2.000000
v 0.000000 3.497541 -2.000000
v -2.000000 2.497541 -1.000000
v -2.000000 4.497541 0.000000
v -2.000000 4.497541 -1.000000
v -2.000000 2.497541 0.000000
v -2.000000 2.497541 1.000000
v -2.000000 3.497541 1.000000
v -2.000000 4.497541 1.000000
v -2.000000 3.497541 0.000000
v -2.000000 3.497541 -2.000000
v -2.000000 2.497541 -2.000000
v -2.000000 4.497541 -2.000000
v 0.000000 5.497541 -1.000000
v 0.000000 5.497541 0.000000
v -2.150000 5.497541 1.150000
v -2.150000 5.497541 -2.150000
v 1.150000 5.497541 -2.150000
v 1.150000 5.497541 1.150000
v -2.150000 8.497541 1.150000
v -2.150000 8.497541 -2.150000
v 1.150000 8.497541 -2.150000
v 1.150000 8.497541 1.150000
v 0.000000 4.497541 4.000000
v -1.000000 4.497541 4.000000
v -1.000000 3.497541 4.000000
v 0.000000 3.497541 4.000000
v -1.000000 4.497541 -5.000000
v 0.000000 4.497541 -5.000000
v -1.000000 3.497541 -5.000000
v 0.000000 3.497541 -5.000000
v 0.000000 3.497541 2.923077
v -1.000000 3.497541 2.923077
v -1.000000 4.497541 2.923077
v 0.000000 4.497541 2.923077
v -1.000000 3.497541 -4.033430
v 0.000000 3.497541 -4.033430
v -1.000000 4.497541 -4.033430
v 0.000000 4.497541 -4.033430
v -3.000000 3.497541 4.000000
v -3.000000 4.497541 4.000000
v -3.000000 4.497541 2.923077
v -3.000000 4.497541 -5.000000
v -3.000000 3.497541 -5.000000
v -3.000000 3.497541 -4.033430
v -3.000000 4.497541 -4.033430
v -3.000000 3.497541 2.923077
v 0.000000 -0.002459 -1.000000
v -1.000000 -0.002459 -1.000000
v -1.000000 -0.002459 0.000000
v -1.000000 -0.002459 1.000000
v 0.000000 -0.002459 1.000000
v 0.000000 -0.002459 0.000000
v 0.000000 -0.002459 -2.000000
v -1.000000 -0.002459 -2.000000
vt 0.000000 0.000000
vt 0.000000 0.000000
vt 0.000000 0.000000
vt 0.000000 0.000000
vt 0.000000 0.000000
vt 0.000000 0.000000
vt 0.000000 0.000000
vt 0.000000 0.000000
vt 0.000000 0.000000
vt 0.000000 0.000000
vt 0.000000 0.000000
vt 0.000000 0.000000
vt 0.000000 0.000000
vt 0.000000 0.000000
vt 0.000000 0.000000
vt 0.000000 0.000000
vt 0.000000 0.000000
vt 0.000000 0.000000
vt 0.000000 0.000000
vt 0.000000 0.000000
vt 0.000000 0.000000
vt 0.000000 0.000000
vt 0.000000 0.000000
vt 0.000000 0.000000
vt 0.000000 0.000000
vt 0.000000 0.000000
vt 0.000000 0.000000
vt 0.000000 0.000000
vt 0.000000 0.000000
vt 0.000000 0.000000
vt 0.000000 0.000000
vt 0.000000 0.000000
vt 0.000000 0.000000
vt 0.000000 0.000000
vt 0.000000 0.000000
vt 0.000000 0.000000
vt 0.000000 0.000000
vt 0.000000 0.000000
vt 0.000000 0.000000
vt 0.000000 0.000000
vt 0.000000 0.000000
vt 0.000000 0.000000
vt 0.000000 0.000000
vt 0.000000 0.000000
vt 0.000000 0.000000
vt 0.000000 0.000000
vt 0.000000 0.000000
vt 0.000000 0.000000
vt 0.000000 0.000000
vt 0.000000 0.000000
vt 0.000000 0.000000
vt 0.000000 0.000000
vt 0.000000 0.000000
vt 0.000000 0.000000
vt 0.000000 0.000000
vt 0.000000 0.000000
vt 0.000000 0.000000
vt 0.000000 0.000000
vt 0.000000 0.000000
vt 0.000000 0.000000
vt 0.000000 0.000000
vt 0.000000 0.000000
vt 0.000000 0.000000
vt 0.000000 0.000000
vt 0.000000 0.000000
vt 0.000000 0.000000
vt 0.000000 0.000000
vt 0.000000 0.000000
vt 0.000000 0.000000
vt 0.000000 0.000000
vt 0.000000 0.000000
vt 0.000000 0.000000
vt 0.000000 0.000000
vt 0.000000 0.000000
vt 0.000000 0.000000
vt 0.000000 0.000000
vt 0.000000 0.000000
vt 0.000000 0.000000
vt 0.000000 0.000000
vt 0.000000 0.000000
vt 0.000000 0.000000
vt 0.000000 0.000000
vt 0.000000 0.000000
vt 0.000000 0.000000
vt 0.000000 0.000000
vt 0.000000 0.000000
vt 0.000000 0.000000
vt 0.000000 0.000000
vn 0.0000 1.0000 0.0000
vn 0.0000 -1.0000 0.0000
vn 1.0000 0.0000 0.0000
vn 0.0000 0.0000 1.0000
vn 0.0000 0.0000 -1.0000
vn -1.0000 0.0000 0.0000
usemtl Material
s off
f 1/1/1 27/2/1 12/3/1
f 19/4/2 18/5/2 25/6/2
f 6/7/2 45/8/2 30/9/2
f 15/10/1 9/11/1 23/12/1
f 11/13/3 10/14/3 22/15/3
f 65/16/2 59/17/2 66/18/2
f 21/19/4 8/20/4 18/5/4
f 10/14/4 18/5/4 4/21/4
f 3/22/4 21/19/4 10/14/4
f 22/15/3 4/21/3 19/4/3
f 20/23/3 19/4/3 2/24/3
f 1/1/3 22/15/3 20/23/3
f 23/12/1 3/22/1 11/13/1
f 12/3/1 11/13/1 1/1/1
f 23/12/4 24/25/4 15/10/4
f 16/26/2 36/27/2 6/7/2
f 34/28/1 38/29/1 5/30/1
f 7/31/4 41/32/4 17/33/4
f 29/34/5 88/35/5 30/9/5
f 13/36/2 16/26/2 6/7/2
f 2/24/2 25/6/2 13/36/2
f 15/10/1 42/37/1 7/31/1
f 13/36/2 33/38/2 2/24/2
f 2/24/3 32/39/3 20/23/3
f 27/2/5 32/39/5 35/40/5
f 35/40/5 33/38/5 29/34/5
f 31/41/5 29/34/5 30/9/5
f 69/42/2 64/43/2 70/44/2
f 20/23/3 28/45/3 1/1/3
f 8/20/2 39/46/2 16/26/2
f 12/3/1 34/28/1 5/30/1
f 30/9/6 82/47/6 6/7/6
f 37/48/6 26/49/6 43/50/6
f 43/50/6 36/27/6 39/46/6
f 41/32/6 39/46/6 40/51/6
f 42/37/6 43/50/6 41/32/6
f 26/49/6 45/8/6 36/27/6
f 38/29/6 44/52/6 26/49/6
f 30/9/5 44/52/5 31/41/5
f 5/30/1 37/48/1 15/10/1
f 31/41/5 46/53/5 34/28/5
f 17/33/4 40/51/4 8/20/4
f 47/54/2 52/55/2 48/56/2
f 12/3/3 48/56/3 23/12/3
f 15/10/6 14/57/6 5/30/6
f 5/30/5 47/54/5 12/3/5
f 52/55/4 53/58/4 49/59/4
f 24/25/2 50/60/2 14/57/2
f 48/56/2 49/59/2 24/25/2
f 14/57/2 51/61/2 47/54/2
f 54/62/1 56/63/1 55/64/1
f 50/60/5 55/64/5 51/61/5
f 51/61/3 56/63/3 52/55/3
f 49/59/6 54/62/6 50/60/6
f 57/65/4 59/17/4 60/66/4
f 67/67/1 57/65/1 68/68/1
f 68/68/3 60/66/3 65/16/3
f 63/69/5 76/70/5 61/71/5
f 61/71/5 64/43/5 63/69/5
f 66/18/5 75/72/5 67/67/5
f 72/73/1 61/71/1 71/74/1
f 70/44/3 62/75/3 72/73/3
f 17/33/6 67/67/6 7/31/6
f 9/11/3 65/16/3 21/19/3
f 7/31/1 68/68/1 9/11/1
f 21/19/2 66/18/2 17/33/2
f 35/40/3 72/73/3 27/2/3
f 27/2/1 71/74/1 34/28/1
f 34/28/6 69/42/6 31/41/6
f 31/41/2 70/44/2 35/40/2
f 80/76/6 74/77/6 75/72/6
f 79/78/6 77/79/6 78/80/6
f 61/71/1 79/78/1 71/74/1
f 58/81/4 73/82/4 59/17/4
f 69/42/2 77/79/2 63/69/2
f 71/74/4 78/80/4 69/42/4
f 59/17/2 80/76/2 66/18/2
f 67/67/1 74/77/1 58/81/1
f 86/83/2 84/84/2 83/85/2
f 82/47/2 87/86/2 81/87/2
f 13/36/3 87/86/3 29/34/3
f 8/20/4 85/88/4 18/5/4
f 6/7/4 81/87/4 13/36/4
f 25/6/5 83/85/5 16/26/5
f 16/26/6 84/84/6 8/20/6
f 18/5/3 86/83/3 25/6/3
f 1/1/1 28/45/1 27/2/1
f 19/4/2 4/21/2 18/5/2
f 6/7/2 36/27/2 45/8/2
f 15/10/1 7/31/1 9/11/1
f 11/13/3 3/22/3 10/14/3
f 65/16/2 60/66/2 59/17/2
f 21/19/4 17/33/4 8/20/4
f 10/14/4 21/19/4 18/5/4
f 3/22/4 9/11/4 21/19/4
f 22/15/3 10/14/3 4/21/3
f 20/23/3 22/15/3 19/4/3
f 1/1/3 11/13/3 22/15/3
f 23/12/1 9/11/1 3/22/1
f 12/3/1 23/12/1 11/13/1
f 23/12/4 48/56/4 24/25/4
f 16/26/2 39/46/2 36/27/2
f 34/28/1 46/53/1 38/29/1
f 7/31/4 42/37/4 41/32/4
f 29/34/5 87/86/5 88/35/5
f 13/36/2 25/6/2 16/26/2
f 2/24/2 19/4/2 25/6/2
f 15/10/1 37/48/1 42/37/1
f 13/36/2 29/34/2 33/38/2
f 2/24/3 33/38/3 32/39/3
f 27/2/5 28/45/5 32/39/5
f 35/40/5 32/39/5 33/38/5
f 31/41/5 35/40/5 29/34/5
f 69/42/2 63/69/2 64/43/2
f 20/23/3 32/39/3 28/45/3
f 8/20/2 40/51/2 39/46/2
f 12/3/1 27/2/1 34/28/1
f 30/9/6 88/35/6 82/47/6
f 37/48/6 38/29/6 26/49/6
f 43/50/6 26/49/6 36/27/6
f 41/32/6 43/50/6 39/46/6
f 42/37/6 37/48/6 43/50/6
f 26/49/6 44/52/6 45/8/6
f 38/29/6 46/53/6 44/52/6
f 30/9/5 45/8/5 44/52/5
f 5/30/1 38/29/1 37/48/1
f 31/41/5 44/52/5 46/53/5
f 17/33/4 41/32/4 40/51/4
f 47/54/2 51/61/2 52/55/2
f 12/3/3 47/54/3 48/56/3
f 15/10/6 24/25/6 14/57/6
f 5/30/5 14/57/5 47/54/5
f 52/55/4 56/63/4 53/58/4
f 24/25/2 49/59/2 50/60/2
f 48/56/2 52/55/2 49/59/2
f 14/57/2 50/60/2 51/61/2
f 54/62/1 53/58/1 56/63/1
f 50/60/5 54/62/5 55/64/5
f 51/61/3 55/64/3 56/63/3
f 49/59/6 53/58/6 54/62/6
f 57/65/4 58/81/4 59/17/4
f 67/67/1 58/81/1 57/65/1
f 68/68/3 57/65/3 60/66/3
f 63/69/5 77/79/5 76/70/5
f 61/71/5 62/75/5 64/43/5
f 66/18/5 80/76/5 75/72/5
f 72/73/1 62/75/1 61/71/1
f 70/44/3 64/43/3 62/75/3
f 17/33/6 66/18/6 67/67/6
f 9/11/3 68/68/3 65/16/3
f 7/31/1 67/67/1 68/68/1
f 21/19/2 65/16/2 66/18/2
f 35/40/3 70/44/3 72/73/3
f 27/2/1 72/73/1 71/74/1
f 34/28/6 71/74/6 69/42/6
f 31/41/2 69/42/2 70/44/2
f 80/76/6 73/82/6 74/77/6
f 79/78/6 76/70/6 77/79/6
f 61/71/1 76/70/1 79/78/1
f 58/81/4 74/77/4 73/82/4
f 69/42/2 78/80/2 77/79/2
f 71/74/4 79/78/4 78/80/4
f 59/17/2 73/82/2 80/76/2
f 67/67/1 75/72/1 74/77/1
f 86/83/2 85/88/2 84/84/2
f 82/47/2 88/35/2 87/86/2
f 13/36/3 81/87/3 87/86/3
f 8/20/4 84/84/4 85/88/4
f 6/7/4 82/47/4 81/87/4
f 25/6/5 86/83/5 83/85/5
f 16/26/6 83/85/6 84/84/6
f 18/5/3 85/88/3 86/83/3
