# Blender v2.79 (sub 0) OBJ File: 'rocket.blend'
# www.blender.org
mtllib rocket.mtl
o Cube
v -0.666835 -0.500000 -0.500000
v 1.666835 -0.500000 -0.500000
v 1.666835 -0.500000 0.500000
v -0.666834 0.500000 -0.500000
v 1.666836 0.500000 -0.499850
v 1.666835 0.500000 0.500000
v -0.666835 0.500000 0.500000
v 2.666835 -0.000000 0.000001
v -1.666835 0.350014 -0.350008
v -0.666835 -0.008720 -0.500008
v -1.666835 0.350014 0.349992
v -0.666835 0.500000 -0.008750
v -1.666835 0.500001 -0.050001
v -1.666834 1.500001 0.032499
v -1.666834 1.500001 -0.050001
v 1.666835 0.500000 -0.499700
v -1.666835 0.500001 0.032499
v -0.666834 0.900021 -0.005260
v -1.666835 -0.049971 -0.500009
v -1.666834 0.032529 -1.500009
v -1.666834 -0.049971 -1.500009
v -1.666835 0.032529 -0.500009
v -0.666834 -0.005211 -0.900015
v -1.666835 -0.349986 -0.350012
v -0.666835 -0.499999 0.008742
v -0.666835 -0.499999 0.499992
v -1.666835 -0.500000 0.049993
v -1.666834 -1.500000 -0.032507
v -1.666834 -1.500000 0.049993
v -1.666835 -0.500000 -0.032507
v -0.666834 -0.899978 0.005235
v -1.666835 -0.349858 0.349935
v -0.666835 0.008932 0.499916
v -0.666835 0.500182 0.499916
v -1.666835 0.050183 0.499916
v -1.666834 -0.032317 1.499916
v -1.666834 0.050183 1.499917
v -1.666835 -0.032317 0.499916
v -0.666834 0.005381 0.899940
vn 0.4472 0.8944 0.0000
vn -0.0000 -0.0000 1.0000
vn -0.0000 0.0002 1.0000
vn 0.4472 0.0000 0.8944
vn 0.0377 0.9993 0.0000
vn 0.0184 0.8943 -0.4471
vn 0.4472 -0.8944 0.0000
vn -1.0000 -0.0000 -0.0000
vn 0.4472 0.0001 -0.8945
vn 0.0184 -0.4471 -0.8943
vn -0.0000 -1.0000 0.0000
vn 0.0000 1.0000 0.0000
vn 0.0377 -0.0000 0.9993
vn -0.1483 0.9889 -0.0000
vn 0.5145 0.8575 0.0000
vn 0.0001 1.0000 -0.0004
vn 0.0412 0.0087 -0.9991
vn -0.1483 0.0000 -0.9889
vn 0.5145 0.0000 -0.8575
vn 0.0412 -0.9991 -0.0088
vn 0.0377 0.0000 -0.9993
vn 0.0185 -0.8941 0.4475
vn -0.1484 -0.9889 0.0000
vn 0.5145 -0.8575 -0.0000
vn 0.0412 -0.0088 0.9991
vn 0.0377 -0.9993 -0.0000
vn -0.1484 0.0001 0.9889
vn 0.5145 -0.0000 0.8575
vn 0.0412 0.9991 0.0089
vn 0.0001 0.0000 -1.0000
vn 0.0000 -0.0000 -1.0000
vn 0.0000 0.0001 -1.0000
vn 0.0184 0.4472 0.8943
vn 0.0412 0.9991 0.0088
vn 0.0412 -0.0087 0.9991
vn 0.0176 0.9040 0.4271
vn 0.0447 -0.0000 -0.9990
vn 0.0176 0.4271 -0.9040
vn 0.0447 -0.9990 0.0000
vn 0.0412 0.0088 -0.9991
vn -0.1485 -0.9889 0.0000
vn 0.0176 -0.9040 -0.4271
vn 0.0447 0.0000 0.9990
vn 0.0412 -0.9991 -0.0089
vn 0.0176 -0.4270 0.9041
vn 0.0448 0.9990 -0.0000
vn -0.1483 0.0000 0.9889
usemtl Material
s off
f 6//1 8//1 5//1
f 6//2 33//2 3//2
f 33//3 26//3 3//3
f 6//4 3//4 8//4
f 6//2 34//2 33//2
f 22//5 23//5 20//5
f 12//6 9//6 13//6
f 3//7 2//7 8//7
f 22//8 21//8 19//8
f 5//9 8//9 2//9
f 10//10 24//10 19//10
f 26//11 25//11 3//11
f 17//8 15//8 13//8
f 4//12 12//12 5//12
f 17//13 18//13 14//13
f 12//14 11//14 7//14
f 18//15 15//15 14//15
f 34//16 6//16 12//16
f 12//12 16//12 5//12
f 13//17 18//17 12//17
f 10//18 9//18 4//18
f 23//19 21//19 20//19
f 19//20 23//20 10//20
f 30//21 31//21 28//21
f 30//8 29//8 27//8
f 25//22 32//22 27//22
f 25//23 24//23 1//23
f 31//24 29//24 28//24
f 27//25 31//25 25//25
f 38//26 39//26 36//26
f 35//8 36//8 37//8
f 33//27 32//27 26//27
f 39//28 37//28 36//28
f 35//29 39//29 33//29
f 12//12 6//12 16//12
f 4//30 5//30 10//30
f 2//31 1//31 10//31
f 5//32 2//32 10//32
f 2//11 25//11 1//11
f 3//11 25//11 2//11
f 9//8 27//8 32//8
f 9//8 22//8 27//8
f 27//8 22//8 30//8
f 24//8 30//8 19//8
f 19//8 30//8 22//8
f 32//8 38//8 9//8
f 9//8 38//8 13//8
f 17//8 13//8 38//8
f 38//8 35//8 17//8
f 33//33 11//33 35//33
f 17//8 35//8 11//8
f 22//34 10//34 23//34
f 12//14 4//14 9//14
f 22//8 20//8 21//8
f 10//18 1//18 24//18
f 17//8 14//8 15//8
f 17//35 12//35 18//35
f 12//36 17//36 11//36
f 13//37 15//37 18//37
f 10//38 22//38 9//38
f 19//39 21//39 23//39
f 30//40 25//40 31//40
f 30//8 28//8 29//8
f 25//41 26//41 32//41
f 25//42 30//42 24//42
f 27//43 29//43 31//43
f 38//44 33//44 39//44
f 35//8 38//8 36//8
f 33//45 38//45 32//45
f 35//46 37//46 39//46
f 33//47 34//47 11//47
